<svg data-v-423bf9ae="" xmlns="http://www.w3.org/2000/svg" viewBox="0 0 527 90" class="iconLeft"><!----><!----><!----><g data-v-423bf9ae="" id="5ce1c50a-86a6-4a62-a69d-82bbb0f6c9a5" fill="#fff" transform="matrix(6.335797075835233,0,0,6.335797075835233,159.81549439783015,-19.5300942853561)"><path d="M4.56 9.56L4.56 9.56L4.56 9.56Q4.21 9.56 3.90 9.67L3.90 9.67L3.90 9.67Q3.58 9.79 3.35 10.00L3.35 10.00L3.35 10.00Q3.12 10.22 2.98 10.54L2.98 10.54L2.98 10.54Q2.84 10.86 2.84 11.30L2.84 11.30L2.84 11.30Q2.84 12.17 3.34 12.60L3.34 12.60L3.34 12.60Q3.84 13.03 4.55 13.03L4.55 13.03L4.55 13.03Q4.97 13.03 5.28 12.94L5.28 12.94L5.28 12.94Q5.59 12.84 5.82 12.73L5.82 12.73L5.82 12.73Q6.10 12.92 6.24 13.15L6.24 13.15L6.24 13.15Q6.38 13.38 6.38 13.71L6.38 13.71L6.38 13.71Q6.38 14.28 5.84 14.60L5.84 14.60L5.84 14.60Q5.29 14.91 4.33 14.91L4.33 14.91L4.33 14.91Q3.44 14.91 2.73 14.65L2.73 14.65L2.73 14.65Q2.02 14.39 1.51 13.92L1.51 13.92L1.51 13.92Q0.99 13.45 0.71 12.80L0.71 12.80L0.71 12.80Q0.43 12.14 0.43 11.34L0.43 11.34L0.43 11.34Q0.43 10.42 0.73 9.72L0.73 9.72L0.73 9.72Q1.04 9.03 1.55 8.58L1.55 8.58L1.55 8.58Q2.07 8.13 2.75 7.91L2.75 7.91L2.75 7.91Q3.43 7.69 4.19 7.69L4.19 7.69L4.19 7.69Q5.19 7.69 5.74 8.05L5.74 8.05L5.74 8.05Q6.29 8.41 6.29 8.99L6.29 8.99L6.29 8.99Q6.29 9.25 6.16 9.49L6.16 9.49L6.16 9.49Q6.03 9.72 5.87 9.88L5.87 9.88L5.87 9.88Q5.63 9.77 5.29 9.67L5.29 9.67L5.29 9.67Q4.96 9.56 4.56 9.56ZM7.60 13.05L7.60 5.59L7.60 5.59Q7.74 5.54 8.05 5.50L8.05 5.50L8.05 5.50Q8.36 5.45 8.68 5.45L8.68 5.45L8.68 5.45Q8.99 5.45 9.23 5.49L9.23 5.49L9.23 5.49Q9.48 5.53 9.65 5.66L9.65 5.66L9.65 5.66Q9.81 5.78 9.90 6.00L9.90 6.00L9.90 6.00Q9.98 6.22 9.98 6.57L9.98 6.57L9.98 7.94L9.98 7.94Q10.33 7.80 10.65 7.74L10.65 7.74L10.65 7.74Q10.96 7.69 11.34 7.69L11.34 7.69L11.34 7.69Q12.01 7.69 12.61 7.92L12.61 7.92L12.61 7.92Q13.22 8.16 13.68 8.62L13.68 8.62L13.68 8.62Q14.14 9.07 14.41 9.74L14.41 9.74L14.41 9.74Q14.67 10.42 14.67 11.30L14.67 11.30L14.67 11.30Q14.67 12.21 14.40 12.89L14.40 12.89L14.40 12.89Q14.13 13.57 13.64 14.01L13.64 14.01L13.64 14.01Q13.15 14.46 12.44 14.69L12.44 14.69L12.44 14.69Q11.73 14.92 10.88 14.92L10.88 14.92L10.88 14.92Q9.95 14.92 9.31 14.71L9.31 14.71L9.31 14.71Q8.67 14.49 8.22 14.17L8.22 14.17L8.22 14.17Q7.60 13.73 7.60 13.05L7.60 13.05ZM10.88 13.05L10.88 13.05L10.88 13.05Q11.52 13.05 11.88 12.61L11.88 12.61L11.88 12.61Q12.24 12.17 12.24 11.30L12.24 11.30L12.24 11.30Q12.24 10.42 11.87 9.98L11.87 9.98L11.87 9.98Q11.51 9.55 10.89 9.55L10.89 9.55L10.89 9.55Q10.61 9.55 10.41 9.60L10.41 9.60L10.41 9.60Q10.21 9.66 9.97 9.77L9.97 9.77L9.97 12.82L9.97 12.82Q10.12 12.92 10.34 12.99L10.34 12.99L10.34 12.99Q10.56 13.05 10.88 13.05ZM22.55 10.44L22.55 14.69L22.55 14.69Q22.41 14.73 22.11 14.77L22.11 14.77L22.11 14.77Q21.81 14.81 21.49 14.81L21.49 14.81L21.49 14.81Q21.18 14.81 20.94 14.77L20.94 14.77L20.94 14.77Q20.69 14.73 20.52 14.60L20.52 14.60L20.52 14.60Q20.36 14.48 20.27 14.26L20.27 14.26L20.27 14.26Q20.17 14.04 20.17 13.69L20.17 13.69L20.17 10.58L20.17 10.58Q20.17 10.01 19.89 9.78L19.89 9.78L19.89 9.78Q19.60 9.55 19.18 9.55L19.18 9.55L19.18 9.55Q18.90 9.55 18.65 9.62L18.65 9.62L18.65 9.62Q18.40 9.69 18.24 9.79L18.24 9.79L18.24 14.69L18.24 14.69Q18.10 14.73 17.80 14.77L17.80 14.77L17.80 14.77Q17.50 14.81 17.18 14.81L17.18 14.81L17.18 14.81Q16.87 14.81 16.63 14.77L16.63 14.77L16.63 14.77Q16.38 14.73 16.21 14.60L16.21 14.60L16.21 14.60Q16.04 14.48 15.95 14.26L15.95 14.26L15.95 14.26Q15.86 14.04 15.86 13.69L15.86 13.69L15.86 5.57L15.86 5.57Q16.02 5.54 16.32 5.50L16.32 5.50L16.32 5.50Q16.62 5.45 16.93 5.45L16.93 5.45L16.93 5.45Q17.23 5.45 17.48 5.49L17.48 5.49L17.48 5.49Q17.72 5.53 17.89 5.66L17.89 5.66L17.89 5.66Q18.06 5.78 18.15 6.00L18.15 6.00L18.15 6.00Q18.24 6.22 18.24 6.57L18.24 6.57L18.24 7.94L18.24 7.94Q18.42 7.87 18.80 7.78L18.80 7.78L18.80 7.78Q19.17 7.69 19.61 7.69L19.61 7.69L19.61 7.69Q21 7.69 21.78 8.38L21.78 8.38L21.78 8.38Q22.55 9.07 22.55 10.44L22.55 10.44ZM27.86 9.56L27.86 9.56L27.86 9.56Q27.51 9.56 27.20 9.67L27.20 9.67L27.20 9.67Q26.88 9.79 26.65 10.00L26.65 10.00L26.65 10.00Q26.42 10.22 26.28 10.54L26.28 10.54L26.28 10.54Q26.14 10.86 26.14 11.30L26.14 11.30L26.14 11.30Q26.14 12.17 26.63 12.60L26.63 12.60L26.63 12.60Q27.13 13.03 27.85 13.03L27.85 13.03L27.85 13.03Q28.27 13.03 28.57 12.94L28.57 12.94L28.57 12.94Q28.88 12.84 29.12 12.73L29.12 12.73L29.12 12.73Q29.40 12.92 29.54 13.15L29.54 13.15L29.54 13.15Q29.68 13.38 29.68 13.71L29.68 13.71L29.68 13.71Q29.68 14.28 29.13 14.60L29.13 14.60L29.13 14.60Q28.59 14.91 27.62 14.91L27.62 14.91L27.62 14.91Q26.74 14.91 26.03 14.65L26.03 14.65L26.03 14.65Q25.31 14.39 24.80 13.92L24.80 13.92L24.80 13.92Q24.29 13.45 24.01 12.80L24.01 12.80L24.01 12.80Q23.73 12.14 23.73 11.34L23.73 11.34L23.73 11.34Q23.73 10.42 24.03 9.72L24.03 9.72L24.03 9.72Q24.33 9.03 24.85 8.58L24.85 8.58L24.85 8.58Q25.37 8.13 26.05 7.91L26.05 7.91L26.05 7.91Q26.73 7.69 27.48 7.69L27.48 7.69L27.48 7.69Q28.49 7.69 29.04 8.05L29.04 8.05L29.04 8.05Q29.58 8.41 29.58 8.99L29.58 8.99L29.58 8.99Q29.58 9.25 29.46 9.49L29.46 9.49L29.46 9.49Q29.33 9.72 29.16 9.88L29.16 9.88L29.16 9.88Q28.92 9.77 28.59 9.67L28.59 9.67L28.59 9.67Q28.25 9.56 27.86 9.56ZM33.29 6.57L33.29 14.69L33.29 14.69Q33.14 14.71 32.84 14.76L32.84 14.76L32.84 14.76Q32.54 14.81 32.23 14.81L32.23 14.81L32.23 14.81Q31.92 14.81 31.68 14.77L31.68 14.77L31.68 14.77Q31.43 14.73 31.26 14.60L31.26 14.60L31.26 14.60Q31.09 14.48 31.00 14.26L31.00 14.26L31.00 14.26Q30.91 14.04 30.91 13.69L30.91 13.69L30.91 5.57L30.91 5.57Q31.07 5.54 31.37 5.50L31.37 5.50L31.37 5.50Q31.67 5.45 31.98 5.45L31.98 5.45L31.98 5.45Q32.28 5.45 32.53 5.49L32.53 5.49L32.53 5.49Q32.77 5.53 32.94 5.66L32.94 5.66L32.94 5.66Q33.11 5.78 33.20 6.00L33.20 6.00L33.20 6.00Q33.29 6.22 33.29 6.57L33.29 6.57ZM41.83 11.30L41.83 11.30L41.83 11.30Q41.83 12.17 41.57 12.85L41.57 12.85L41.57 12.85Q41.30 13.52 40.82 13.99L40.82 13.99L40.82 13.99Q40.33 14.45 39.66 14.69L39.66 14.69L39.66 14.69Q38.99 14.92 38.16 14.92L38.16 14.92L38.16 14.92Q37.34 14.92 36.67 14.67L36.67 14.67L36.67 14.67Q35.99 14.42 35.51 13.95L35.51 13.95L35.51 13.95Q35.03 13.48 34.76 12.81L34.76 12.81L34.76 12.81Q34.50 12.14 34.50 11.30L34.50 11.30L34.50 11.30Q34.50 10.47 34.76 9.80L34.76 9.80L34.76 9.80Q35.03 9.13 35.51 8.66L35.51 8.66L35.51 8.66Q35.99 8.19 36.67 7.94L36.67 7.94L36.67 7.94Q37.34 7.69 38.16 7.69L38.16 7.69L38.16 7.69Q38.99 7.69 39.66 7.95L39.66 7.95L39.66 7.95Q40.33 8.20 40.82 8.67L40.82 8.67L40.82 8.67Q41.30 9.14 41.57 9.81L41.57 9.81L41.57 9.81Q41.83 10.49 41.83 11.30ZM36.93 11.30L36.93 11.30L36.93 11.30Q36.93 12.15 37.26 12.61L37.26 12.61L37.26 12.61Q37.59 13.06 38.18 13.06L38.18 13.06L38.18 13.06Q38.77 13.06 39.08 12.60L39.08 12.60L39.08 12.60Q39.40 12.14 39.40 11.30L39.40 11.30L39.40 11.30Q39.40 10.46 39.07 10.00L39.07 10.00L39.07 10.00Q38.75 9.55 38.16 9.55L38.16 9.55L38.16 9.55Q37.58 9.55 37.25 10.00L37.25 10.00L37.25 10.00Q36.93 10.46 36.93 11.30ZM42.99 12.00L42.99 7.99L42.99 7.99Q43.13 7.95 43.43 7.91L43.43 7.91L43.43 7.91Q43.74 7.87 44.06 7.87L44.06 7.87L44.06 7.87Q44.37 7.87 44.61 7.91L44.61 7.91L44.61 7.91Q44.86 7.95 45.02 8.08L45.02 8.08L45.02 8.08Q45.19 8.20 45.28 8.42L45.28 8.42L45.28 8.42Q45.37 8.64 45.37 8.99L45.37 8.99L45.37 12.00L45.37 12.00Q45.37 12.57 45.65 12.82L45.65 12.82L45.65 12.82Q45.93 13.06 46.47 13.06L46.47 13.06L46.47 13.06Q46.79 13.06 46.99 13.01L46.99 13.01L46.99 13.01Q47.19 12.95 47.31 12.89L47.31 12.89L47.31 7.99L47.31 7.99Q47.45 7.95 47.75 7.91L47.75 7.91L47.75 7.91Q48.05 7.87 48.37 7.87L48.37 7.87L48.37 7.87Q48.68 7.87 48.92 7.91L48.92 7.91L48.92 7.91Q49.17 7.95 49.34 8.08L49.34 8.08L49.34 8.08Q49.50 8.20 49.59 8.42L49.59 8.42L49.59 8.42Q49.69 8.64 49.69 8.99L49.69 8.99L49.69 13.24L49.69 13.24Q49.69 13.94 49.10 14.29L49.10 14.29L49.10 14.29Q48.61 14.60 47.93 14.76L47.93 14.76L47.93 14.76Q47.25 14.92 46.45 14.92L46.45 14.92L46.45 14.92Q45.70 14.92 45.06 14.76L45.06 14.76L45.06 14.76Q44.42 14.59 43.96 14.24L43.96 14.24L43.96 14.24Q43.50 13.89 43.25 13.34L43.25 13.34L43.25 13.34Q42.99 12.78 42.99 12.00L42.99 12.00ZM50.85 11.30L50.85 11.30L50.85 11.30Q50.85 10.37 51.13 9.70L51.13 9.70L51.13 9.70Q51.41 9.02 51.91 8.57L51.91 8.57L51.91 8.57Q52.40 8.12 53.07 7.90L53.07 7.90L53.07 7.90Q53.73 7.69 54.50 7.69L54.50 7.69L54.50 7.69Q54.78 7.69 55.05 7.74L55.05 7.74L55.05 7.74Q55.31 7.78 55.48 7.85L55.48 7.85L55.48 5.59L55.48 5.59Q55.62 5.54 55.93 5.50L55.93 5.50L55.93 5.50Q56.24 5.45 56.56 5.45L56.56 5.45L56.56 5.45Q56.87 5.45 57.11 5.49L57.11 5.49L57.11 5.49Q57.36 5.53 57.53 5.66L57.53 5.66L57.53 5.66Q57.69 5.78 57.78 6.00L57.78 6.00L57.78 6.00Q57.86 6.22 57.86 6.57L57.86 6.57L57.86 13.20L57.86 13.20Q57.86 13.86 57.25 14.25L57.25 14.25L57.25 14.25Q56.84 14.52 56.20 14.72L56.20 14.72L56.20 14.72Q55.55 14.92 54.71 14.92L54.71 14.92L54.71 14.92Q53.80 14.92 53.08 14.67L53.08 14.67L53.08 14.67Q52.36 14.42 51.86 13.94L51.86 13.94L51.86 13.94Q51.37 13.47 51.11 12.80L51.11 12.80L51.11 12.80Q50.85 12.14 50.85 11.30ZM54.82 9.55L54.82 9.55L54.82 9.55Q54.07 9.55 53.66 9.98L53.66 9.98L53.66 9.98Q53.26 10.42 53.26 11.30L53.26 11.30L53.26 11.30Q53.26 12.17 53.63 12.61L53.63 12.61L53.63 12.61Q54.01 13.05 54.73 13.05L54.73 13.05L54.73 13.05Q54.98 13.05 55.18 12.97L55.18 12.97L55.18 12.97Q55.38 12.89 55.50 12.80L55.50 12.80L55.50 9.72L55.50 9.72Q55.22 9.55 54.82 9.55Z"></path></g><defs data-v-423bf9ae=""><linearGradient data-v-423bf9ae="" gradientTransform="rotate(25)" id="cda8342e-2b50-4084-b40a-347fcdbc0fc3" x1="0%" y1="0%" x2="100%" y2="0%"><stop data-v-423bf9ae="" offset="0%" style="stop-color: rgb(0, 118, 221); stop-opacity: 1;"></stop><stop data-v-423bf9ae="" offset="100%" style="stop-color: rgb(0, 205, 233); stop-opacity: 1;"></stop></linearGradient></defs><g data-v-423bf9ae="" id="16b8492d-c44d-45af-9a5f-298ea196a4ea" transform="matrix(1.4334405048577148,0,0,1.4334405048577148,0.7300526752153473,-25.893818428172267)" stroke="none" fill="url(#cda8342e-2b50-4084-b40a-347fcdbc0fc3)"><path d="M36.478 60.17a12.417 12.417 0 0 1 6.843-2.047c.125 0 .241.002.349.004.2.008.399.018.597.031l.012-.092A22.424 22.424 0 0 1 62.25 38.604a22.54 22.54 0 0 1 4.309-.416c.983 0 1.959.065 2.923.193-2.316-8.972-9.141-16.129-17.915-18.912a26.355 26.355 0 0 0-2.973-.759 27.036 27.036 0 0 0-5.175-.498c-8.112 0-15.382 3.59-20.318 9.266 5.369 1.795 7.584 6.325 7.584 6.325-4.058-3.433-9.74-3.493-9.74-3.493h-.075C9.344 30.311 0 39.654 0 51.18c0 11.527 9.344 20.871 20.871 20.871H30.95a12.434 12.434 0 0 1 5.528-11.881z"></path><path d="M87.47 49.861a15.395 15.395 0 0 0-2.852-.437c-.325-.02-.654-.031-.985-.031h-.057s-4.302.045-7.375 2.645c0 0 1.677-3.432 5.743-4.789a20.633 20.633 0 0 0-3.234-2.996 20.642 20.642 0 0 0-2.554-1.622 20.199 20.199 0 0 0-6.216-2.121 20.608 20.608 0 0 0-7.3.098c-.768.15-1.52.341-2.252.573-7.531 2.39-13.166 9.036-14.082 17.114l.221.125c.492.283.947.607 1.368.963a12.058 12.058 0 0 1 1.728 1.818c.467.604.857 1.209 1.173 1.758.715 1.242 1.052 2.199 1.052 2.199a8.148 8.148 0 0 0-1.462-2.041 9.806 9.806 0 0 0-1.924-1.518c-1.248-.758-2.288-1.039-2.288-1.039a10.483 10.483 0 0 0-3.73-.36c-1.78.148-3.432.744-4.844 1.674a10.41 10.41 0 0 0-4.394 11.197c.085.348.186.689.306 1.021 1.442 4.025 5.29 6.906 9.81 6.906h40.312c8.729 0 15.805-7.076 15.805-15.805-.001-7.402-5.094-13.617-11.969-15.332z"></path></g><!----></svg>