<svg data-v-423bf9ae="" xmlns="http://www.w3.org/2000/svg" viewBox="0 0 514 90" class="iconLeft"><!----><!----><!----><g data-v-423bf9ae="" id="53851afe-53a2-4646-ba8b-d1077d47d37c" fill="#fff" transform="matrix(6.335797075835233,0,0,6.335797075835233,157.7246792273226,-19.5300942853561)"><path d="M5.14 11.23L7.38 13.47L7.38 13.47Q7.31 14.13 6.99 14.48L6.99 14.48L6.99 14.48Q6.68 14.83 6.08 14.83L6.08 14.83L6.08 14.83Q5.63 14.83 5.28 14.61L5.28 14.61L5.28 14.61Q4.93 14.39 4.52 13.87L4.52 13.87L3.14 12.14L3.14 14.69L3.14 14.69Q2.98 14.71 2.68 14.76L2.68 14.76L2.68 14.76Q2.38 14.81 2.07 14.81L2.07 14.81L2.07 14.81Q1.76 14.81 1.52 14.77L1.52 14.77L1.52 14.77Q1.27 14.73 1.11 14.60L1.11 14.60L1.11 14.60Q0.94 14.48 0.85 14.26L0.85 14.26L0.85 14.26Q0.76 14.04 0.76 13.69L0.76 13.69L0.76 5.59L0.76 5.59Q0.91 5.54 1.21 5.50L1.21 5.50L1.21 5.50Q1.51 5.45 1.82 5.45L1.82 5.45L1.82 5.45Q2.13 5.45 2.37 5.49L2.37 5.49L2.37 5.49Q2.62 5.53 2.79 5.66L2.79 5.66L2.79 5.66Q2.95 5.78 3.04 6.00L3.04 6.00L3.04 6.00Q3.14 6.22 3.14 6.57L3.14 6.57L3.14 10.26L5.54 7.80L5.54 7.80Q6.27 7.80 6.71 8.12L6.71 8.12L6.71 8.12Q7.15 8.44 7.15 8.93L7.15 8.93L7.15 8.93Q7.15 9.14 7.08 9.32L7.08 9.32L7.08 9.32Q7.01 9.49 6.87 9.67L6.87 9.67L6.87 9.67Q6.72 9.86 6.49 10.06L6.49 10.06L6.49 10.06Q6.26 10.26 5.95 10.53L5.95 10.53L5.14 11.23ZM10.88 10.25L10.88 12.36L10.88 12.36Q10.88 12.73 11.11 12.88L11.11 12.88L11.11 12.88Q11.34 13.03 11.76 13.03L11.76 13.03L11.76 13.03Q11.97 13.03 12.19 13.00L12.19 13.00L12.19 13.00Q12.42 12.96 12.59 12.91L12.59 12.91L12.59 12.91Q12.71 13.06 12.80 13.25L12.80 13.25L12.80 13.25Q12.89 13.44 12.89 13.71L12.89 13.71L12.89 13.71Q12.89 14.24 12.50 14.57L12.50 14.57L12.50 14.57Q12.10 14.91 11.09 14.91L11.09 14.91L11.09 14.91Q9.86 14.91 9.19 14.35L9.19 14.35L9.19 14.35Q8.53 13.79 8.53 12.53L8.53 12.53L8.53 6.54L8.53 6.54Q8.68 6.50 8.97 6.45L8.97 6.45L8.97 6.45Q9.25 6.40 9.58 6.40L9.58 6.40L9.58 6.40Q10.19 6.40 10.54 6.62L10.54 6.62L10.54 6.62Q10.88 6.83 10.88 7.53L10.88 7.53L10.88 8.43L12.71 8.43L12.71 8.43Q12.80 8.58 12.87 8.81L12.87 8.81L12.87 8.81Q12.95 9.04 12.95 9.32L12.95 9.32L12.95 9.32Q12.95 9.81 12.73 10.03L12.73 10.03L12.73 10.03Q12.52 10.25 12.15 10.25L12.15 10.25L10.88 10.25ZM20.82 10.44L20.82 14.69L20.82 14.69Q20.68 14.73 20.38 14.77L20.38 14.77L20.38 14.77Q20.08 14.81 19.75 14.81L19.75 14.81L19.75 14.81Q19.45 14.81 19.20 14.77L19.20 14.77L19.20 14.77Q18.96 14.73 18.79 14.60L18.79 14.60L18.79 14.60Q18.62 14.48 18.53 14.26L18.53 14.26L18.53 14.26Q18.44 14.04 18.44 13.69L18.44 13.69L18.44 10.58L18.44 10.58Q18.44 10.01 18.15 9.78L18.15 9.78L18.15 9.78Q17.86 9.55 17.44 9.55L17.44 9.55L17.44 9.55Q17.16 9.55 16.91 9.62L16.91 9.62L16.91 9.62Q16.66 9.69 16.51 9.79L16.51 9.79L16.51 14.69L16.51 14.69Q16.37 14.73 16.07 14.77L16.07 14.77L16.07 14.77Q15.76 14.81 15.44 14.81L15.44 14.81L15.44 14.81Q15.13 14.81 14.89 14.77L14.89 14.77L14.89 14.77Q14.64 14.73 14.48 14.60L14.48 14.60L14.48 14.60Q14.31 14.48 14.22 14.26L14.22 14.26L14.22 14.26Q14.13 14.04 14.13 13.69L14.13 13.69L14.13 5.57L14.13 5.57Q14.28 5.54 14.58 5.50L14.58 5.50L14.58 5.50Q14.88 5.45 15.19 5.45L15.19 5.45L15.19 5.45Q15.50 5.45 15.74 5.49L15.74 5.49L15.74 5.49Q15.99 5.53 16.16 5.66L16.16 5.66L16.16 5.66Q16.32 5.78 16.41 6.00L16.41 6.00L16.41 6.00Q16.51 6.22 16.51 6.57L16.51 6.57L16.51 7.94L16.51 7.94Q16.69 7.87 17.06 7.78L17.06 7.78L17.06 7.78Q17.43 7.69 17.88 7.69L17.88 7.69L17.88 7.69Q19.26 7.69 20.04 8.38L20.04 8.38L20.04 8.38Q20.82 9.07 20.82 10.44L20.82 10.44ZM26.12 9.56L26.12 9.56L26.12 9.56Q25.77 9.56 25.46 9.67L25.46 9.67L25.46 9.67Q25.14 9.79 24.91 10.00L24.91 10.00L24.91 10.00Q24.68 10.22 24.54 10.54L24.54 10.54L24.54 10.54Q24.40 10.86 24.40 11.30L24.40 11.30L24.40 11.30Q24.40 12.17 24.90 12.60L24.90 12.60L24.90 12.60Q25.40 13.03 26.11 13.03L26.11 13.03L26.11 13.03Q26.53 13.03 26.84 12.94L26.84 12.94L26.84 12.94Q27.15 12.84 27.38 12.73L27.38 12.73L27.38 12.73Q27.66 12.92 27.80 13.15L27.80 13.15L27.80 13.15Q27.94 13.38 27.94 13.71L27.94 13.71L27.94 13.71Q27.94 14.28 27.40 14.60L27.40 14.60L27.40 14.60Q26.85 14.91 25.89 14.91L25.89 14.91L25.89 14.91Q25.00 14.91 24.29 14.65L24.29 14.65L24.29 14.65Q23.58 14.39 23.07 13.92L23.07 13.92L23.07 13.92Q22.55 13.45 22.27 12.80L22.27 12.80L22.27 12.80Q21.99 12.14 21.99 11.34L21.99 11.34L21.99 11.34Q21.99 10.42 22.30 9.72L22.30 9.72L22.30 9.72Q22.60 9.03 23.11 8.58L23.11 8.58L23.11 8.58Q23.63 8.13 24.31 7.91L24.31 7.91L24.31 7.91Q24.99 7.69 25.75 7.69L25.75 7.69L25.75 7.69Q26.75 7.69 27.30 8.05L27.30 8.05L27.30 8.05Q27.85 8.41 27.85 8.99L27.85 8.99L27.85 8.99Q27.85 9.25 27.72 9.49L27.72 9.49L27.72 9.49Q27.59 9.72 27.43 9.88L27.43 9.88L27.43 9.88Q27.19 9.77 26.85 9.67L26.85 9.67L26.85 9.67Q26.52 9.56 26.12 9.56ZM31.56 6.57L31.56 14.69L31.56 14.69Q31.40 14.71 31.10 14.76L31.10 14.76L31.10 14.76Q30.80 14.81 30.49 14.81L30.49 14.81L30.49 14.81Q30.18 14.81 29.94 14.77L29.94 14.77L29.94 14.77Q29.69 14.73 29.53 14.60L29.53 14.60L29.53 14.60Q29.36 14.48 29.27 14.26L29.27 14.26L29.27 14.26Q29.18 14.04 29.18 13.69L29.18 13.69L29.18 5.57L29.18 5.57Q29.33 5.54 29.63 5.50L29.63 5.50L29.63 5.50Q29.93 5.45 30.24 5.45L30.24 5.45L30.24 5.45Q30.55 5.45 30.79 5.49L30.79 5.49L30.79 5.49Q31.04 5.53 31.21 5.66L31.21 5.66L31.21 5.66Q31.37 5.78 31.47 6.00L31.47 6.00L31.47 6.00Q31.56 6.22 31.56 6.57L31.56 6.57ZM40.10 11.30L40.10 11.30L40.10 11.30Q40.10 12.17 39.83 12.85L39.83 12.85L39.83 12.85Q39.56 13.52 39.08 13.99L39.08 13.99L39.08 13.99Q38.60 14.45 37.93 14.69L37.93 14.69L37.93 14.69Q37.25 14.92 36.43 14.92L36.43 14.92L36.43 14.92Q35.60 14.92 34.93 14.67L34.93 14.67L34.93 14.67Q34.26 14.42 33.77 13.95L33.77 13.95L33.77 13.95Q33.29 13.48 33.03 12.81L33.03 12.81L33.03 12.81Q32.76 12.14 32.76 11.30L32.76 11.30L32.76 11.30Q32.76 10.47 33.03 9.80L33.03 9.80L33.03 9.80Q33.29 9.13 33.77 8.66L33.77 8.66L33.77 8.66Q34.26 8.19 34.93 7.94L34.93 7.94L34.93 7.94Q35.60 7.69 36.43 7.69L36.43 7.69L36.43 7.69Q37.25 7.69 37.93 7.95L37.93 7.95L37.93 7.95Q38.60 8.20 39.08 8.67L39.08 8.67L39.08 8.67Q39.56 9.14 39.83 9.81L39.83 9.81L39.83 9.81Q40.10 10.49 40.10 11.30ZM35.20 11.30L35.20 11.30L35.20 11.30Q35.20 12.15 35.52 12.61L35.52 12.61L35.52 12.61Q35.85 13.06 36.44 13.06L36.44 13.06L36.44 13.06Q37.03 13.06 37.34 12.60L37.34 12.60L37.34 12.60Q37.66 12.14 37.66 11.30L37.66 11.30L37.66 11.30Q37.66 10.46 37.34 10.00L37.34 10.00L37.34 10.00Q37.02 9.55 36.43 9.55L36.43 9.55L36.43 9.55Q35.84 9.55 35.52 10.00L35.52 10.00L35.52 10.00Q35.20 10.46 35.20 11.30ZM41.26 12.00L41.26 7.99L41.26 7.99Q41.40 7.95 41.70 7.91L41.70 7.91L41.70 7.91Q42 7.87 42.32 7.87L42.32 7.87L42.32 7.87Q42.63 7.87 42.88 7.91L42.88 7.91L42.88 7.91Q43.12 7.95 43.29 8.08L43.29 8.08L43.29 8.08Q43.46 8.20 43.55 8.42L43.55 8.42L43.55 8.42Q43.64 8.64 43.64 8.99L43.64 8.99L43.64 12.00L43.64 12.00Q43.64 12.57 43.92 12.82L43.92 12.82L43.92 12.82Q44.20 13.06 44.73 13.06L44.73 13.06L44.73 13.06Q45.05 13.06 45.26 13.01L45.26 13.01L45.26 13.01Q45.46 12.95 45.57 12.89L45.57 12.89L45.57 7.99L45.57 7.99Q45.71 7.95 46.01 7.91L46.01 7.91L46.01 7.91Q46.31 7.87 46.63 7.87L46.63 7.87L46.63 7.87Q46.94 7.87 47.19 7.91L47.19 7.91L47.19 7.91Q47.43 7.95 47.60 8.08L47.60 8.08L47.60 8.08Q47.77 8.20 47.86 8.42L47.86 8.42L47.86 8.42Q47.95 8.64 47.95 8.99L47.95 8.99L47.95 13.24L47.95 13.24Q47.95 13.94 47.36 14.29L47.36 14.29L47.36 14.29Q46.87 14.60 46.19 14.76L46.19 14.76L46.19 14.76Q45.51 14.92 44.72 14.92L44.72 14.92L44.72 14.92Q43.96 14.92 43.32 14.76L43.32 14.76L43.32 14.76Q42.69 14.59 42.22 14.24L42.22 14.24L42.22 14.24Q41.76 13.89 41.51 13.34L41.51 13.34L41.51 13.34Q41.26 12.78 41.26 12.00L41.26 12.00ZM49.11 11.30L49.11 11.30L49.11 11.30Q49.11 10.37 49.39 9.70L49.39 9.70L49.39 9.70Q49.67 9.02 50.17 8.57L50.17 8.57L50.17 8.57Q50.67 8.12 51.33 7.90L51.33 7.90L51.33 7.90Q52.00 7.69 52.77 7.69L52.77 7.69L52.77 7.69Q53.05 7.69 53.31 7.74L53.31 7.74L53.31 7.74Q53.58 7.78 53.75 7.85L53.75 7.85L53.75 5.59L53.75 5.59Q53.89 5.54 54.19 5.50L54.19 5.50L54.19 5.50Q54.50 5.45 54.82 5.45L54.82 5.45L54.82 5.45Q55.13 5.45 55.38 5.49L55.38 5.49L55.38 5.49Q55.62 5.53 55.79 5.66L55.79 5.66L55.79 5.66Q55.96 5.78 56.04 6.00L56.04 6.00L56.04 6.00Q56.13 6.22 56.13 6.57L56.13 6.57L56.13 13.20L56.13 13.20Q56.13 13.86 55.51 14.25L55.51 14.25L55.51 14.25Q55.10 14.52 54.46 14.72L54.46 14.72L54.46 14.72Q53.82 14.92 52.98 14.92L52.98 14.92L52.98 14.92Q52.07 14.92 51.34 14.67L51.34 14.67L51.34 14.67Q50.62 14.42 50.13 13.94L50.13 13.94L50.13 13.94Q49.63 13.47 49.37 12.80L49.37 12.80L49.37 12.80Q49.11 12.14 49.11 11.30ZM53.09 9.55L53.09 9.55L53.09 9.55Q52.33 9.55 51.93 9.98L51.93 9.98L51.93 9.98Q51.52 10.42 51.52 11.30L51.52 11.30L51.52 11.30Q51.52 12.17 51.90 12.61L51.90 12.61L51.90 12.61Q52.28 13.05 52.99 13.05L52.99 13.05L52.99 13.05Q53.24 13.05 53.45 12.97L53.45 12.97L53.45 12.97Q53.65 12.89 53.76 12.80L53.76 12.80L53.76 9.72L53.76 9.72Q53.48 9.55 53.09 9.55Z"></path></g><defs data-v-423bf9ae=""><linearGradient data-v-423bf9ae="" gradientTransform="rotate(25)" id="494b0c62-ccd3-4c4a-88e5-c954c44dfec8" x1="0%" y1="0%" x2="100%" y2="0%"><stop data-v-423bf9ae="" offset="0%" style="stop-color: rgb(0, 118, 221); stop-opacity: 1;"></stop><stop data-v-423bf9ae="" offset="100%" style="stop-color: rgb(0, 205, 233); stop-opacity: 1;"></stop></linearGradient></defs><g data-v-423bf9ae="" id="749c802d-c6c3-4a47-acc8-82684f2cafc2" transform="matrix(1.4334405048577148,0,0,1.4334405048577148,0.7300526752153473,-25.893818428172267)" stroke="none" fill="url(#494b0c62-ccd3-4c4a-88e5-c954c44dfec8)"><path d="M36.478 60.17a12.417 12.417 0 0 1 6.843-2.047c.125 0 .241.002.349.004.2.008.399.018.597.031l.012-.092A22.424 22.424 0 0 1 62.25 38.604a22.54 22.54 0 0 1 4.309-.416c.983 0 1.959.065 2.923.193-2.316-8.972-9.141-16.129-17.915-18.912a26.355 26.355 0 0 0-2.973-.759 27.036 27.036 0 0 0-5.175-.498c-8.112 0-15.382 3.59-20.318 9.266 5.369 1.795 7.584 6.325 7.584 6.325-4.058-3.433-9.74-3.493-9.74-3.493h-.075C9.344 30.311 0 39.654 0 51.18c0 11.527 9.344 20.871 20.871 20.871H30.95a12.434 12.434 0 0 1 5.528-11.881z"></path><path d="M87.47 49.861a15.395 15.395 0 0 0-2.852-.437c-.325-.02-.654-.031-.985-.031h-.057s-4.302.045-7.375 2.645c0 0 1.677-3.432 5.743-4.789a20.633 20.633 0 0 0-3.234-2.996 20.642 20.642 0 0 0-2.554-1.622 20.199 20.199 0 0 0-6.216-2.121 20.608 20.608 0 0 0-7.3.098c-.768.15-1.52.341-2.252.573-7.531 2.39-13.166 9.036-14.082 17.114l.221.125c.492.283.947.607 1.368.963a12.058 12.058 0 0 1 1.728 1.818c.467.604.857 1.209 1.173 1.758.715 1.242 1.052 2.199 1.052 2.199a8.148 8.148 0 0 0-1.462-2.041 9.806 9.806 0 0 0-1.924-1.518c-1.248-.758-2.288-1.039-2.288-1.039a10.483 10.483 0 0 0-3.73-.36c-1.78.148-3.432.744-4.844 1.674a10.41 10.41 0 0 0-4.394 11.197c.085.348.186.689.306 1.021 1.442 4.025 5.29 6.906 9.81 6.906h40.312c8.729 0 15.805-7.076 15.805-15.805-.001-7.402-5.094-13.617-11.969-15.332z"></path></g><!----></svg>