<?xml version="1.0" encoding="utf-8"?>
<svg viewBox="0 0 144.564 91.643" xmlns="http://www.w3.org/2000/svg">
  <defs>
    <linearGradient data-v-423bf9ae="" gradientTransform="rotate(25)" id="cda8342e-2b50-4084-b40a-347fcdbc0fc3" x1="0%" y1="0%" x2="100%" y2="0%">
      <stop data-v-423bf9ae="" offset="0" style="stop-color: rgb(0, 118, 221); stop-opacity: 1;"/>
      <stop data-v-423bf9ae="" offset="1" style="stop-color: rgb(0, 205, 233); stop-opacity: 1;"/>
    </linearGradient>
  </defs>
  <g data-v-423bf9ae="" id="16b8492d-c44d-45af-9a5f-298ea196a4ea" transform="matrix(1.4334404468536377, 0, 0, 1.4334404468536377, 0.7300527095794678, -25.893817901611328)" stroke="none" fill="url(#cda8342e-2b50-4084-b40a-347fcdbc0fc3)">
    <path d="M36.478 60.17a12.417 12.417 0 0 1 6.843-2.047c.125 0 .241.002.349.004.2.008.399.018.597.031l.012-.092A22.424 22.424 0 0 1 62.25 38.604a22.54 22.54 0 0 1 4.309-.416c.983 0 1.959.065 2.923.193-2.316-8.972-9.141-16.129-17.915-18.912a26.355 26.355 0 0 0-2.973-.759 27.036 27.036 0 0 0-5.175-.498c-8.112 0-15.382 3.59-20.318 9.266 5.369 1.795 7.584 6.325 7.584 6.325-4.058-3.433-9.74-3.493-9.74-3.493h-.075C9.344 30.311 0 39.654 0 51.18c0 11.527 9.344 20.871 20.871 20.871H30.95a12.434 12.434 0 0 1 5.528-11.881z"/>
    <path d="M87.47 49.861a15.395 15.395 0 0 0-2.852-.437c-.325-.02-.654-.031-.985-.031h-.057s-4.302.045-7.375 2.645c0 0 1.677-3.432 5.743-4.789a20.633 20.633 0 0 0-3.234-2.996 20.642 20.642 0 0 0-2.554-1.622 20.199 20.199 0 0 0-6.216-2.121 20.608 20.608 0 0 0-7.3.098c-.768.15-1.52.341-2.252.573-7.531 2.39-13.166 9.036-14.082 17.114l.221.125c.492.283.947.607 1.368.963a12.058 12.058 0 0 1 1.728 1.818c.467.604.857 1.209 1.173 1.758.715 1.242 1.052 2.199 1.052 2.199a8.148 8.148 0 0 0-1.462-2.041 9.806 9.806 0 0 0-1.924-1.518c-1.248-.758-2.288-1.039-2.288-1.039a10.483 10.483 0 0 0-3.73-.36c-1.78.148-3.432.744-4.844 1.674a10.41 10.41 0 0 0-4.394 11.197c.085.348.186.689.306 1.021 1.442 4.025 5.29 6.906 9.81 6.906h40.312c8.729 0 15.805-7.076 15.805-15.805-.001-7.402-5.094-13.617-11.969-15.332z"/>
  </g>
</svg>