<?xml version="1.0" standalone="no"?>
<!DOCTYPE svg PUBLIC "-//W3C//DTD SVG 20010904//EN"
 "http://www.w3.org/TR/2001/REC-SVG-20010904/DTD/svg10.dtd">
<svg version="1.0" xmlns="http://www.w3.org/2000/svg"
 width="842.000000pt" height="842.000000pt" viewBox="0 0 842.000000 842.000000"
 preserveAspectRatio="xMidYMid meet">
<metadata>
Created by potrace 1.14, written by Peter Selinger 2001-2017
</metadata>
<g transform="translate(0.000000,842.000000) scale(0.100000,-0.100000)"
fill="#000000" stroke="none">
<path d="M3504 6809 c-448 -34 -885 -209 -1239 -496 -98 -80 -283 -259 -274
-266 2 -2 56 -29 119 -59 140 -69 272 -167 362 -271 62 -72 138 -177 138 -192
0 -3 -24 13 -53 35 -30 22 -98 63 -152 90 -347 177 -758 199 -1164 64 -509
-169 -928 -586 -1096 -1089 -348 -1040 321 -2130 1406 -2289 85 -13 204 -16
595 -16 l489 0 -4 84 c-7 170 32 344 114 506 173 345 535 570 915 570 l89 0 6
38 c50 304 139 545 285 771 142 219 337 414 552 555 328 213 711 318 1106 302
130 -5 152 -4 152 9 0 51 -118 348 -193 485 -370 679 -1056 1117 -1832 1170
-155 11 -175 11 -321 -1z"/>
<path d="M5475 4969 c-787 -67 -1424 -663 -1543 -1442 l-9 -58 51 -33 c124
-79 262 -239 349 -405 26 -49 47 -92 47 -96 0 -4 -19 19 -43 51 -156 212 -428
337 -697 321 -428 -26 -764 -338 -820 -762 -56 -429 233 -848 656 -949 63 -15
226 -17 1944 -14 l1875 3 93 28 c309 90 545 250 724 490 109 147 178 295 226
485 24 98 27 124 27 302 0 178 -3 204 -27 302 -65 256 -180 459 -365 640 -230
225 -521 353 -849 374 -201 12 -456 -56 -619 -166 -68 -45 -69 -46 -54 -19 65
124 251 285 397 345 29 11 55 23 58 26 9 10 -202 203 -292 266 -328 233 -734
345 -1129 311z"/>
</g>
</svg>
