{
	"asset":{
		"generator":"Khronos glTF Blender I/O v3.5.30",
		"version":"2.0"
	},
	"scene":0,
	"scenes":[
		{
			"name":"Scene",
			"nodes":[
				0
			]
		}
	],
	"nodes":[
		{
			"mesh":0,
			"name":"leaves_1",
			"rotation":[
				-0.8802081942558289,
				-0.04368056356906891,
				-0.4323106110095978,
				0.19087451696395874
			],
			"translation":[
				0.0038759149610996246,
				0,
				0
			]
		}
	],
	"materials":[
		{
			"doubleSided":true,
			"name":"leaves_1",
			"pbrMetallicRoughness":{}
		}
	],
	"meshes":[
		{
			"name":"leaves_1",
			"primitives":[
				{
					"attributes":{
						"POSITION":0,
						"NORMAL":1
					},
					"indices":2,
					"material":0
				}
			]
		}
	],
	"accessors":[
		{
			"bufferView":0,
			"componentType":5126,
			"count":22542,
			"max":[
				2.290743350982666,
				1.5114834308624268,
				2.151122570037842
			],
			"min":[
				-2.991349220275879,
				-1.4451549053192139,
				-3.141836643218994
			],
			"type":"VEC3"
		},
		{
			"bufferView":1,
			"componentType":5126,
			"count":22542,
			"type":"VEC3"
		},
		{
			"bufferView":2,
			"componentType":5123,
			"count":22542,
			"type":"SCALAR"
		}
	],
	"bufferViews":[
		{
			"buffer":0,
			"byteLength":270504,
			"byteOffset":0,
			"target":34962
		},
		{
			"buffer":0,
			"byteLength":270504,
			"byteOffset":270504,
			"target":34962
		},
		{
			"buffer":0,
			"byteLength":45084,
			"byteOffset":541008,
			"target":34963
		}
	],
	"buffers":[
		{
			"byteLength":586092,
			"uri":"data:application/octet-stream;base64,"
		}
	]
}
